<?xml version="1.0" encoding="utf-8"?>
<svg version="1.1" xmlns:xlink="http://www.w3.org/1999/xlink" width="35px" height="35px" xmlns="http://www.w3.org/2000/svg">
  <g transform="matrix(1 0 0 1 -49 -234 )">
    <path d="M 66.5 234  C 76.3 234  84 241.7  84 251.5  C 84 261.3  76.3 269  66.5 269  C 56.7 269  49 261.3  49 251.5  C 49 241.7  56.7 234  66.5 234  Z " fill-rule="nonzero" fill="#ffffff" stroke="none" />
    <path d="M 66.5 234.5  C 76.02 234.5  83.5 241.98  83.5 251.5  C 83.5 261.02  76.02 268.5  66.5 268.5  C 56.98 268.5  49.5 261.02  49.5 251.5  C 49.5 241.98  56.98 234.5  66.5 234.5  Z " stroke-width="1" stroke="#797979" fill="none" />
  </g>
</svg>